HIERARCHY
ROOT Joint1
{
	OFFSET 0.000000 0.000000 0.000000
	CHANNELS 6 Xposition Yposition Zposition Xrotation Yrotation Zrotation
	JOINT Joint2
	{
		OFFSET -0.000000 0.000000 1.456275
		CHANNELS 6 Xposition Yposition Zposition Xrotation Yrotation Zrotation
		JOINT Joint3
		{
			OFFSET -0.000000 0.000002 1.471446
			CHANNELS 6 Xposition Yposition Zposition Xrotation Yrotation Zrotation
			JOINT Joint4
			{
				OFFSET 0.625745 0.000000 0.917755
				CHANNELS 6 Xposition Yposition Zposition Xrotation Yrotation Zrotation
				JOINT Joint5
				{
					OFFSET -0.629534 0.000001 0.940221
					CHANNELS 6 Xposition Yposition Zposition Xrotation Yrotation Zrotation
					JOINT Joint6
					{
						OFFSET -0.000001 0.113772 1.960660
						CHANNELS 6 Xposition Yposition Zposition Xrotation Yrotation Zrotation
						JOINT Joint7
						{
							OFFSET -0.669733 -0.113771 0.388340
							CHANNELS 6 Xposition Yposition Zposition Xrotation Yrotation Zrotation
							End Site
							{
								OFFSET 0.005509 0.005509 0.438980
							}
						}
					}
				}
			}
		}
	}
}
MOTION
Frames: 26
Frame Time: 0.041667
0.000000 0.000000 0.000000 -0.000000 1.019410 -160.186104 -0.000000 -0.000000 1.456275 0.000001 -35.107814 -0.000000 -0.000001 0.000002 1.471446 -0.000008 -1.133467 -132.968593 0.625745 0.000001 0.917755 0.000018 94.793873 -0.000001 -0.629533 0.000001 0.940221 -0.000002 1.709737 60.574585 -0.000001 0.113771 1.960661 -88.303875 -152.740638 -0.000001 -0.669733 -0.113771 0.388340 -1.006996 3.520697 152.214358 
0.000000 0.000000 0.000000 -0.000000 1.019410 -159.961446 -0.000000 0.000000 1.456275 -0.000001 -35.121663 -0.000000 -0.000000 0.000002 1.471445 -0.000010 -1.133462 -132.782142 0.625744 0.000001 0.917755 0.000058 94.850304 -0.000042 -0.629533 0.000001 0.940221 -0.000001 1.709737 60.489610 -0.000001 0.113772 1.960661 -88.303875 -152.905123 0.000001 -0.669733 -0.113771 0.388340 -1.006584 3.520824 152.190193 
0.000000 0.000000 0.000000 -0.000000 1.019410 -159.605784 -0.000000 0.000000 1.456275 0.000000 -35.143570 0.000000 -0.000001 0.000002 1.471446 -0.000009 -1.133468 -132.486983 0.625745 0.000000 0.917755 0.000027 94.939623 -0.000011 -0.629534 0.000001 0.940222 -0.000002 1.709734 60.355083 -0.000001 0.113771 1.960660 -88.303875 -153.165544 0.000002 -0.669733 -0.113771 0.388340 -1.005931 3.521024 152.151903 
0.000000 0.000000 0.000000 -0.000000 1.019410 -159.134487 -0.000000 0.000000 1.456275 0.000000 -35.172612 -0.000000 -0.000000 0.000002 1.471446 -0.000009 -1.133462 -132.095845 0.625744 0.000001 0.917755 0.000026 95.058003 -0.000001 -0.629534 0.000001 0.940221 0.000001 1.709737 60.176815 -0.000001 0.113772 1.960660 -88.303875 -153.510619 -0.000001 -0.669733 -0.113771 0.388340 -1.005068 3.521290 152.101168 
0.000000 0.000000 0.000000 -0.000000 1.019410 -158.562896 -0.000000 -0.000000 1.456275 0.000000 -35.207836 0.000000 -0.000000 0.000002 1.471446 -0.000009 -1.133469 -131.621488 0.625745 0.000000 0.917755 0.000035 95.201560 -0.000030 -0.629533 0.000001 0.940221 -0.000001 1.709740 59.960619 -0.000001 0.113772 1.960661 -88.303882 -153.929132 -0.000000 -0.669733 -0.113771 0.388340 -1.004027 3.521610 152.039642 
0.000000 0.000000 0.000000 -0.000000 1.019410 -157.906378 -0.000000 -0.000000 1.456275 -0.000000 -35.248277 0.000001 -0.000000 0.000002 1.471446 -0.000010 -1.133465 -131.076644 0.625745 0.000001 0.917755 0.000016 95.366448 -0.000010 -0.629534 0.000001 0.940221 0.000001 1.709739 59.712300 -0.000001 0.113772 1.960660 -88.303882 -154.409827 0.000001 -0.669733 -0.113771 0.388340 -1.002825 3.521974 151.968963 
0.000000 0.000000 0.000000 -0.000000 1.019410 -157.180302 -0.000000 0.000000 1.456275 -0.000000 -35.293025 -0.000001 -0.000000 0.000002 1.471446 -0.000011 -1.133464 -130.474098 0.625745 0.000000 0.917755 0.000037 95.548821 -0.000001 -0.629534 0.000001 0.940221 0.000000 1.709738 59.437665 -0.000001 0.113772 1.960660 -88.303882 -154.941448 -0.000001 -0.669733 -0.113771 0.388340 -1.001498 3.522378 151.890812 
0.000000 0.000000 0.000000 -0.000000 1.019410 -156.400021 -0.000000 -0.000000 1.456275 -0.000001 -35.341099 0.000001 -0.000000 0.000002 1.471446 -0.000008 -1.133464 -129.826542 0.625744 0.000000 0.917755 0.000040 95.744793 -0.000027 -0.629534 0.000001 0.940221 0.000000 1.709738 59.142533 -0.000001 0.113772 1.960661 -88.303875 -155.512793 0.000000 -0.669733 -0.113771 0.388340 -1.000071 3.522811 151.806828 
0.000000 0.000000 0.000000 -0.000000 1.019410 -155.580890 -0.000000 0.000000 1.456275 -0.000000 -35.391575 -0.000000 -0.000000 0.000002 1.471445 -0.000009 -1.133466 -129.146747 0.625745 0.000000 0.917756 0.000035 95.950538 -0.000030 -0.629534 0.000001 0.940220 -0.000000 1.709738 58.832709 -0.000001 0.113772 1.960661 -88.303882 -156.112552 0.000000 -0.669733 -0.113771 0.388340 -0.998572 3.523263 151.718651 
0.000000 0.000000 0.000000 -0.000000 1.019410 -154.738250 -0.000000 -0.000000 1.456275 0.000001 -35.443498 0.000000 -0.000000 0.000002 1.471446 -0.000010 -1.133463 -128.447445 0.625744 0.000000 0.917755 0.000034 96.162165 -0.000013 -0.629533 0.000001 0.940221 -0.000003 1.709736 58.513985 -0.000001 0.113772 1.960661 -88.303875 -156.729523 0.000000 -0.669733 -0.113771 0.388340 -0.997027 3.523723 151.627946 
0.000000 0.000000 0.000000 -0.000000 1.019410 -153.875501 -0.000000 0.000000 1.456275 0.000001 -35.496654 -0.000000 -0.000000 0.000002 1.471446 -0.000010 -1.133465 -127.731463 0.625745 0.000000 0.917755 0.000018 96.378866 -0.000005 -0.629534 0.000001 0.940221 0.000001 1.709739 58.187659 -0.000001 0.113772 1.960660 -88.303882 -157.361220 0.000000 -0.669733 -0.113771 0.388340 -0.995448 3.524192 151.535082 
0.000000 0.000000 0.000000 -0.000000 1.019410 -152.948071 -0.000000 0.000000 1.456275 -0.000001 -35.553798 0.000002 -0.000000 0.000002 1.471446 -0.000010 -1.133466 -126.961797 0.625744 0.000000 0.917755 0.000023 96.611790 -0.000027 -0.629534 0.000001 0.940221 -0.000001 1.709739 57.836867 -0.000001 0.113772 1.960661 -88.303882 -158.040291 -0.000000 -0.669733 -0.113771 0.388339 -0.993745 3.524694 151.435239 
0.000000 0.000000 0.000000 -0.000000 1.019410 -151.899405 -0.000000 0.000000 1.456275 0.000000 -35.618415 -0.000000 -0.000000 0.000002 1.471446 -0.000008 -1.133461 -126.091508 0.625744 0.000000 0.917755 0.000028 96.875175 -0.000019 -0.629534 0.000001 0.940221 -0.000002 1.709739 57.440224 -0.000001 0.113772 1.960660 -88.303882 -158.808127 -0.000000 -0.669733 -0.113771 0.388341 -0.991824 3.525256 151.322363 
0.000000 0.000000 0.000000 -0.000000 1.019410 -150.672908 -0.000000 -0.000000 1.456275 0.000002 -35.693981 -0.000001 -0.000000 0.000002 1.471446 -0.000008 -1.133466 -125.073659 0.625745 0.000000 0.917755 0.000025 97.183217 -0.000006 -0.629534 0.000001 0.940221 -0.000000 1.709737 56.976318 -0.000001 0.113772 1.960660 -88.303875 -159.706147 -0.000000 -0.669733 -0.113771 0.388340 -0.989576 3.525915 151.190335 
0.000000 0.000000 0.000000 -0.000000 1.019410 -149.212094 -0.000000 0.000000 1.456275 -0.000000 -35.783996 0.000000 -0.000000 0.000002 1.471445 -0.000008 -1.133468 -123.861328 0.625744 0.000000 0.917755 0.000021 97.550128 -0.000011 -0.629534 0.000001 0.940221 -0.000001 1.709738 56.423773 -0.000001 0.113772 1.960661 -88.303882 -160.775755 -0.000000 -0.669733 -0.113771 0.388340 -0.986891 3.526687 151.033104 
0.000000 0.000000 0.000000 -0.000000 1.019410 -147.491023 -0.000000 0.000000 1.456275 0.000001 -35.890042 0.000001 -0.000000 0.000002 1.471446 -0.000010 -1.133465 -122.432999 0.625745 0.000000 0.917755 0.000023 97.982390 -0.000007 -0.629534 0.000001 0.940221 -0.000001 1.709737 55.772798 -0.000001 0.113772 1.960660 -88.303875 -162.035911 -0.000001 -0.669733 -0.113771 0.388340 -0.983727 3.527590 150.847842 
0.000000 0.000000 0.000000 -0.000000 1.019410 -145.606492 -0.000000 0.000000 1.456275 0.000003 -36.006158 0.000001 -0.000000 0.000002 1.471446 -0.000006 -1.133465 -120.869049 0.625745 0.000000 0.917755 0.000019 98.455722 -0.000004 -0.629534 0.000001 0.940221 -0.000002 1.709739 55.059996 -0.000001 0.113771 1.960660 -88.303875 -163.415746 -0.000001 -0.669733 -0.113771 0.388340 -0.980260 3.528567 150.644972 
0.000000 0.000000 0.000000 -0.000000 1.019410 -143.685938 -0.000000 0.000000 1.456275 -0.000001 -36.124502 0.000000 -0.000000 0.000002 1.471446 -0.000009 -1.133465 -119.275197 0.625744 0.000001 0.917755 0.000009 98.938091 -0.000014 -0.629534 0.000001 0.940221 0.000001 1.709742 54.333567 -0.000001 0.113772 1.960660 -88.303882 -164.821972 0.000000 -0.669733 -0.113771 0.388340 -0.976720 3.529547 150.438250 
0.000000 0.000000 0.000000 -0.000000 1.019410 -141.826324 -0.000000 -0.000000 1.456275 -0.000001 -36.239078 0.000001 -0.000000 0.000002 1.471445 -0.000010 -1.133463 -117.731916 0.625745 0.000000 0.917755 -0.000007 99.405146 -0.000008 -0.629534 0.000001 0.940221 -0.000002 1.709737 53.630188 -0.000001 0.113772 1.960661 -88.303875 -166.183571 -0.000003 -0.669733 -0.113771 0.388339 -0.973294 3.530486 150.238057 
0.000000 0.000000 0.000000 -0.000000 1.019410 -140.002731 -0.000000 0.000000 1.456275 0.000002 -36.351442 -0.000001 -0.000001 0.000002 1.471446 -0.000009 -1.133468 -116.218537 0.625745 0.000001 0.917755 0.000009 99.863164 -0.000013 -0.629534 0.000001 0.940221 -0.000001 1.709740 52.940431 -0.000001 0.113772 1.960660 -88.303882 -167.518791 0.000001 -0.669733 -0.113771 0.388341 -0.969930 3.531395 150.041757 
0.000000 0.000000 0.000000 -0.000000 1.019410 -138.159769 -0.000000 0.000000 1.456275 -0.000002 -36.465000 0.000002 -0.000000 0.000002 1.471446 -0.000007 -1.133463 -114.689080 0.625745 0.000000 0.917755 0.000013 100.326046 -0.000005 -0.629534 0.000001 0.940221 -0.000002 1.709734 52.243352 -0.000001 0.113772 1.960660 -88.303882 -168.868204 -0.000003 -0.669734 -0.113771 0.388340 -0.966522 3.532300 149.843395 
0.000000 0.000000 0.000000 -0.000000 1.019410 -136.266959 -0.000000 0.000000 1.456275 -0.000000 -36.581629 0.000000 -0.000000 0.000002 1.471446 -0.000007 -1.133465 -113.118253 0.625745 0.000001 0.917755 -0.000006 100.801441 0.000004 -0.629534 0.000001 0.940221 -0.000002 1.709739 51.527415 -0.000001 0.113772 1.960660 -88.303875 -170.254104 -0.000003 -0.669733 -0.113771 0.388340 -0.963018 3.533220 149.639650 
0.000000 0.000000 0.000000 -0.000000 1.019410 -134.393521 -0.000000 -0.000000 1.456275 0.000000 -36.697063 0.000000 -0.000000 0.000002 1.471445 -0.000007 -1.133462 -111.563497 0.625745 0.000001 0.917755 -0.000006 101.271980 -0.000001 -0.629534 0.000001 0.940220 0.000002 1.709737 50.818807 -0.000001 0.113772 1.960660 -88.303875 -171.625824 0.000002 -0.669734 -0.113771 0.388340 -0.959557 3.534116 149.437982 
0.000000 0.000000 0.000000 -0.000000 1.019410 -132.633613 -0.000000 0.000000 1.456275 -0.000000 -36.805506 0.000001 -0.000000 0.000002 1.471446 -0.000008 -1.133466 -110.102964 0.625745 0.000000 0.917755 0.000011 101.714002 -0.000017 -0.629534 0.000001 0.940221 0.000001 1.709735 50.153143 -0.000001 0.113772 1.960661 -88.303875 -172.914421 -0.000000 -0.669733 -0.113772 0.388340 -0.956297 3.534950 149.248526 
0.000000 0.000000 0.000000 -0.000000 1.019410 -131.012140 -0.000000 0.000000 1.456275 -0.000000 -36.905411 0.000000 -0.000000 0.000002 1.471445 -0.000006 -1.133463 -108.757321 0.625745 0.000000 0.917755 0.000011 102.121259 0.000010 -0.629533 0.000001 0.940221 0.000001 1.709740 49.539840 -0.000000 0.113773 1.960660 -88.303875 -174.101645 -0.000003 -0.669733 -0.113771 0.388339 -0.953287 3.535706 149.073988 
0.000000 0.000000 0.000000 -0.000000 1.019410 -129.277149 -0.000000 0.000000 1.456275 -0.000000 -37.012317 -0.000003 -0.000000 0.000002 1.471446 -0.000006 -1.133464 -107.317462 0.625744 0.000000 0.917755 0.000026 102.557018 0.000007 -0.629533 0.000001 0.940221 -0.000001 1.709734 48.883596 -0.000001 0.113772 1.960660 -88.303882 -175.372005 0.000000 -0.669733 -0.113771 0.388341 -0.950069 3.536508 148.887223 
